<svg width="34" height="34" viewBox="0 0 34 34" fill="none" xmlns="http://www.w3.org/2000/svg">
<rect width="34" height="34" rx="3" fill="#280F4D"/>
<path d="M8.56166 27C8.18722 27 8 26.8751 8 26.6254V26.5451C8 26.3667 8.18722 26.1347 8.56166 25.8493C8.93611 25.546 9.20357 25.1892 9.36404 24.7789L14.9807 10.3549C15.1055 10.0338 14.9807 9.66807 14.6062 9.25775C14.2318 8.84742 14.0446 8.57981 14.0446 8.45493V8.37465C14.0446 8.12488 14.214 8 14.5527 8H18.7251C19.0639 8 19.2333 8.12488 19.2333 8.37465V8.45493C19.2333 8.59765 19.1263 8.75822 18.9123 8.93662C18.6984 9.11502 18.5111 9.32019 18.3507 9.55211C18.208 9.7662 18.1902 10.007 18.2972 10.2746L24.636 24.7789C24.7964 25.1714 25.0639 25.5192 25.4383 25.8225C25.8128 26.1258 26 26.3667 26 26.5451V26.6254C26 26.8751 25.8128 27 25.4383 27H20.8915C20.5171 27 20.3299 26.8751 20.3299 26.6254V26.5451C20.3299 26.4202 20.4012 26.2953 20.5438 26.1704C20.6865 26.0455 20.8291 25.9296 20.9718 25.8225C21.1144 25.7155 21.2303 25.5728 21.3195 25.3944C21.4264 25.216 21.4264 25.0108 21.3195 24.7789L20.2496 22.1296H12.1724L11.1828 24.7789C11.0579 25.0822 11.0758 25.3408 11.2363 25.5549C11.4146 25.7512 11.6107 25.9296 11.8247 26.0901C12.0565 26.2507 12.1724 26.4023 12.1724 26.5451V26.6254C12.1724 26.8751 11.9762 27 11.584 27H8.56166ZM12.7073 20.6845H19.7415L16.0773 11.6662L12.7073 20.6845Z" fill="#FF9D77"/>
</svg>
